<?xml version="1.0" encoding="UTF-8"?>
<svg width="100px" height="100px" viewBox="0 0 100 100" version="1.1" xmlns="http://www.w3.org/2000/svg" xmlns:xlink="http://www.w3.org/1999/xlink">
    <!-- Generator: Sketch 47.1 (45422) - http://www.bohemiancoding.com/sketch -->
    <title>hexdec</title>
    <desc>Created with Sketch.</desc>
    <defs></defs>
    <g id="Icons" stroke="none" stroke-width="1" fill="none" fill-rule="evenodd">
        <g id="hexdec">
            <circle id="icon" fill="#8F98A3" cx="50" cy="50" r="50"></circle>
            <path d="M31.716,42.456 L36.612,42.456 L36.612,28.472 L32.388,31.704 L30.468,29.144 L37.764,23.576 L40.58,23.576 L40.58,42.456 L45.38,42.456 L45.38,45.976 L31.716,45.976 L31.716,42.456 Z M63.324,41.016 L56.636,41.016 L55.1,45.976 L50.716,45.976 L57.948,23.576 L62.332,23.576 L69.532,45.976 L64.924,45.976 L63.324,41.016 Z M57.66,37.496 L62.46,37.496 L60.188,30.008 L59.9,30.008 L57.66,37.496 Z M46.56,75.976 L32.288,75.976 L32.288,72.872 C32.5440013,72.6586656 32.8639981,72.3760018 33.248,72.024 C33.6320019,71.6719982 34.0639976,71.2720022 34.544,70.824 C35.0240024,70.3759978 35.530664,69.885336 36.064,69.352 C36.597336,68.818664 37.1199974,68.2640029 37.632,67.688 C38.357337,66.8773293 38.9919973,66.1413366 39.536,65.48 C40.0800027,64.8186634 40.5279982,64.1946696 40.88,63.608 C41.2320018,63.0213304 41.4933325,62.4453362 41.664,61.88 C41.8346675,61.3146638 41.92,60.7333363 41.92,60.136 C41.92,59.7093312 41.824001,59.2933354 41.632,58.888 C41.439999,58.4826646 41.173335,58.1253349 40.832,57.816 C40.490665,57.5066651 40.0800024,57.2613342 39.6,57.08 C39.1199976,56.8986658 38.5920029,56.808 38.016,56.808 C37.2479962,56.808 36.5493365,56.9253322 35.92,57.16 C35.2906635,57.3946678 34.6346701,57.7893306 33.952,58.344 L32.288,55.4 C33.1840045,54.7599968 34.1813278,54.2213355 35.28,53.784 C36.3786722,53.3466645 37.6426595,53.128 39.072,53.128 C39.9893379,53.128 40.8693291,53.2559987 41.712,53.512 C42.5546709,53.7680013 43.3013301,54.1466642 43.952,54.648 C44.6026699,55.1493358 45.1199981,55.7733296 45.504,56.52 C45.8880019,57.2666704 46.08,58.1306618 46.08,59.112 C46.08,59.7946701 46.0213339,60.4293304 45.904,61.016 C45.7866661,61.6026696 45.6053346,62.1893304 45.36,62.776 C45.1146654,63.3626696 44.7946686,63.9653302 44.4,64.584 C44.0053314,65.2026698 43.5306694,65.874663 42.976,66.6 C42.5493312,67.1546694 42.0853358,67.7146638 41.584,68.28 C41.0826642,68.8453362 40.5866691,69.3839974 40.096,69.896 C39.6053309,70.4080026 39.1200024,70.8879978 38.64,71.336 C38.1599976,71.7840022 37.7280019,72.1573318 37.344,72.456 L46.56,72.456 L46.56,75.976 Z M69.496,69.032 C69.496,70.0773386 69.2986686,71.0479955 68.904,71.944 C68.5093314,72.8400045 67.9706701,73.6186634 67.288,74.28 C66.6053299,74.9413366 65.7893381,75.4639981 64.84,75.848 C63.8906619,76.2320019 62.8720054,76.424 61.784,76.424 C60.6746611,76.424 59.6346715,76.2480018 58.664,75.896 C57.6933285,75.5439982 56.845337,75.0160035 56.12,74.312 C55.394663,73.6079965 54.8186688,72.722672 54.392,71.656 C53.9653312,70.589328 53.752,69.352007 53.752,67.944 C53.752,65.8319894 54.1199963,63.9120086 54.856,62.184 C55.5920037,60.4559914 56.5359942,58.9573397 57.688,57.688 C58.8400058,56.4186603 60.1306595,55.3946706 61.56,54.616 C62.9893405,53.8373294 64.407993,53.3413344 65.816,53.128 L66.744,56.424 C65.6133277,56.6373344 64.5573382,56.9839976 63.576,57.464 C62.5946618,57.9440024 61.7200038,58.5253299 60.952,59.208 C60.1839962,59.8906701 59.5386693,60.6479958 59.016,61.48 C58.4933307,62.3120042 58.136001,63.1759955 57.944,64.072 C58.3706688,63.538664 59.0106624,63.0853352 59.864,62.712 C60.7173376,62.3386648 61.6559949,62.152 62.68,62.152 C63.6400048,62.152 64.5359958,62.3066651 65.368,62.616 C66.2000042,62.9253349 66.919997,63.3733304 67.528,63.96 C68.136003,64.5466696 68.6159982,65.2666624 68.968,66.12 C69.3200018,66.9733376 69.496,67.9439946 69.496,69.032 Z M65.464,69.192 C65.464,68.0399942 65.1173368,67.1653363 64.424,66.568 C63.7306632,65.9706637 62.7973392,65.672 61.624,65.672 C60.7706624,65.672 60.0026701,65.8639981 59.32,66.248 C58.6373299,66.6320019 58.1360016,67.0799974 57.816,67.592 C57.7733331,67.8266678 57.7466667,68.0879986 57.736,68.376 C57.7253333,68.6640014 57.72,68.8933325 57.72,69.064 C57.72,69.5760026 57.8053325,70.0666643 57.976,70.536 C58.1466675,71.0053357 58.3973317,71.4159982 58.728,71.768 C59.0586683,72.1200018 59.4586643,72.3973323 59.928,72.6 C60.3973357,72.8026677 60.9413302,72.904 61.56,72.904 C62.0506691,72.904 62.5306643,72.8133342 63,72.632 C63.4693357,72.4506658 63.8853315,72.2000016 64.248,71.88 C64.6106685,71.5599984 64.9039989,71.170669 65.128,70.712 C65.3520011,70.253331 65.464,69.7466694 65.464,69.192 Z" id="1A-26" fill="#FFFFFF"></path>
        </g>
    </g>
</svg>